<svg width="220" height="48" viewBox="0 0 220 48" fill="none" xmlns="http://www.w3.org/2000/svg" role="img" aria-label="StoreLink">
  <defs>
    <linearGradient id="lg" x1="4" y1="4" x2="44" y2="44" gradientUnits="userSpaceOnUse">
      <stop stop-color="#2EAF7D"/><stop offset="1" stop-color="#1D7A9C"/>
    </linearGradient>
  </defs>
  <rect x="2" y="2" width="44" height="44" rx="13" fill="url(#lg)"/>
  <path d="M14.5 19h19l-1.9 15.7a3.2 3.2 0 0 1-3.2 2.8h-8.8a3.2 3.2 0 0 1-3.2-2.8L14.5 19z" fill="white" fill-opacity="0.94"/>
  <path d="M18.5 19v-3.2a5.5 5.5 0 0 1 11 0V19" stroke="white" stroke-width="2.7" stroke-linecap="round" fill="none"/>
  <path d="M20.4 26.4a3.7 3.7 0 0 1 5.2 0l.8.8" stroke="url(#lg)" stroke-width="2.6" stroke-linecap="round" fill="none"/>
  <path d="M27.6 32a3.7 3.7 0 0 1-5.2 0l-.8-.8" stroke="url(#lg)" stroke-width="2.6" stroke-linecap="round" fill="none"/>
  <text x="56" y="32" font-family="ui-sans-serif, system-ui, sans-serif" font-weight="700" font-size="23" fill="#12281E">Store<tspan fill="#2EAF7D">Link</tspan></text>
</svg>
